<?xml version="1.0" standalone="no"?>
<!DOCTYPE svg PUBLIC "-//W3C//DTD SVG 20010904//EN"
 "http://www.w3.org/TR/2001/REC-SVG-20010904/DTD/svg10.dtd">
<svg version="1.0" xmlns="http://www.w3.org/2000/svg"
 width="225.000000pt" height="225.000000pt" viewBox="0 0 225.000000 225.000000"
 preserveAspectRatio="xMidYMid meet">
<metadata>
Created by potrace 1.16, written by Peter Selinger 2001-2019
</metadata>
<g transform="translate(0.000000,225.000000) scale(0.100000,-0.100000)"
fill="#0078d3" stroke="none">
<path d="M989 1781 c-170 -85 -268 -235 -269 -412 0 -40 4 -58 14 -62 19 -7
38 16 30 36 -3 9 0 49 7 89 l12 73 12 -90 c7 -49 15 -100 19 -113 11 -32 42
-25 39 8 -23 226 -16 286 37 344 21 23 57 52 80 65 l43 24 -7 -59 c-12 -96
-35 -174 -77 -254 -44 -86 -47 -100 -20 -100 15 0 32 23 66 92 25 51 51 98 57
105 13 16 42 17 67 1 16 -10 26 -8 55 7 54 29 94 9 119 -60 3 -6 18 -2 36 8
43 25 73 16 94 -28 12 -26 23 -35 41 -35 35 0 50 -23 42 -70 -5 -33 -3 -42 11
-47 33 -11 53 -36 53 -64 0 -54 -83 -66 -96 -14 -7 29 -25 32 -59 9 -33 -22
-64 -10 -81 32 -18 43 -44 45 -44 3 0 -21 10 -40 30 -61 27 -27 36 -30 74 -26
32 4 48 0 65 -13 32 -26 98 -25 127 2 42 40 134 2 134 -55 0 -21 -5 -25 -37
-28 -30 -2 -38 -7 -38 -23 0 -16 8 -21 42 -23 48 -4 73 -29 73 -74 0 -21 -7
-31 -26 -38 -37 -14 -89 -12 -131 5 -32 14 -39 14 -51 1 -25 -24 29 -50 114
-54 81 -5 87 -16 28 -53 -40 -24 -126 -29 -175 -9 -26 11 -32 11 -39 -1 -27
-43 99 -74 195 -48 71 20 135 110 135 191 0 14 -11 46 -25 73 -14 26 -23 55
-20 65 15 48 -56 130 -112 130 -17 0 -28 11 -44 45 -12 25 -30 50 -39 55 -12
6 -16 17 -13 30 8 31 -17 79 -50 97 -17 8 -45 31 -62 49 -18 19 -41 34 -52 34
-19 0 -20 7 -19 112 1 98 -1 113 -16 116 -22 4 -87 -55 -133 -122 -43 -63 -71
-79 -116 -66 -17 5 -35 7 -39 5 -5 -3 -7 43 -7 102 1 63 -2 107 -8 109 -5 2
-26 -5 -46 -15z"/>
<path d="M636 1243 c-92 -115 -162 -297 -168 -433 -3 -59 -1 -65 17 -65 18 0
21 9 27 78 13 137 78 291 171 404 21 25 36 51 34 57 -9 28 -38 13 -81 -41z"/>
<path d="M960 761 c0 -14 18 -29 64 -51 36 -18 67 -38 70 -46 3 -7 10 -53 17
-101 12 -90 24 -118 47 -104 12 7 6 89 -13 181 -6 26 -5 26 62 27 106 2 246
63 216 94 -10 10 -25 6 -75 -17 -54 -25 -75 -29 -148 -29 -76 0 -93 4 -151 33
-77 37 -89 39 -89 13z"/>
</g>
</svg>
